<svg class="rich-terminal" viewBox="0 0 1726 830.8" xmlns="http://www.w3.org/2000/svg">
    <!-- Generated with Rich https://www.textualize.io -->
    <style>

    @font-face {
        font-family: "Fira Code";
        src: local("FiraCode-Regular"),
                url("https://cdnjs.cloudflare.com/ajax/libs/firacode/6.2.0/woff2/FiraCode-Regular.woff2") format("woff2"),
                url("https://cdnjs.cloudflare.com/ajax/libs/firacode/6.2.0/woff/FiraCode-Regular.woff") format("woff");
        font-style: normal;
        font-weight: 400;
    }
    @font-face {
        font-family: "Fira Code";
        src: local("FiraCode-Bold"),
                url("https://cdnjs.cloudflare.com/ajax/libs/firacode/6.2.0/woff2/FiraCode-Bold.woff2") format("woff2"),
                url("https://cdnjs.cloudflare.com/ajax/libs/firacode/6.2.0/woff/FiraCode-Bold.woff") format("woff");
        font-style: bold;
        font-weight: 700;
    }

    .terminal-1126620272-matrix {
        font-family: Fira Code, monospace;
        font-size: 20px;
        line-height: 24.4px;
        font-variant-east-asian: full-width;
    }

    .terminal-1126620272-title {
        font-size: 18px;
        font-weight: bold;
        font-family: arial;
    }

    .terminal-1126620272-r1 { fill: #c5c8c6 }
.terminal-1126620272-r2 { fill: #e0e0e0 }
.terminal-1126620272-r3 { fill: #c5c6c7 }
.terminal-1126620272-r4 { fill: #e2e3e5 }
.terminal-1126620272-r5 { fill: #a0a0a0 }
.terminal-1126620272-r6 { fill: #ffa62b;font-weight: bold }
.terminal-1126620272-r7 { fill: #495259 }
    </style>

    <defs>
    <clipPath id="terminal-1126620272-clip-terminal">
      <rect x="0" y="0" width="1707.0" height="779.8" />
    </clipPath>
    <clipPath id="terminal-1126620272-line-0">
    <rect x="0" y="1.5" width="1708" height="24.65"/>
            </clipPath>
<clipPath id="terminal-1126620272-line-1">
    <rect x="0" y="25.9" width="1708" height="24.65"/>
            </clipPath>
<clipPath id="terminal-1126620272-line-2">
    <rect x="0" y="50.3" width="1708" height="24.65"/>
            </clipPath>
<clipPath id="terminal-1126620272-line-3">
    <rect x="0" y="74.7" width="1708" height="24.65"/>
            </clipPath>
<clipPath id="terminal-1126620272-line-4">
    <rect x="0" y="99.1" width="1708" height="24.65"/>
            </clipPath>
<clipPath id="terminal-1126620272-line-5">
    <rect x="0" y="123.5" width="1708" height="24.65"/>
            </clipPath>
<clipPath id="terminal-1126620272-line-6">
    <rect x="0" y="147.9" width="1708" height="24.65"/>
            </clipPath>
<clipPath id="terminal-1126620272-line-7">
    <rect x="0" y="172.3" width="1708" height="24.65"/>
            </clipPath>
<clipPath id="terminal-1126620272-line-8">
    <rect x="0" y="196.7" width="1708" height="24.65"/>
            </clipPath>
<clipPath id="terminal-1126620272-line-9">
    <rect x="0" y="221.1" width="1708" height="24.65"/>
            </clipPath>
<clipPath id="terminal-1126620272-line-10">
    <rect x="0" y="245.5" width="1708" height="24.65"/>
            </clipPath>
<clipPath id="terminal-1126620272-line-11">
    <rect x="0" y="269.9" width="1708" height="24.65"/>
            </clipPath>
<clipPath id="terminal-1126620272-line-12">
    <rect x="0" y="294.3" width="1708" height="24.65"/>
            </clipPath>
<clipPath id="terminal-1126620272-line-13">
    <rect x="0" y="318.7" width="1708" height="24.65"/>
            </clipPath>
<clipPath id="terminal-1126620272-line-14">
    <rect x="0" y="343.1" width="1708" height="24.65"/>
            </clipPath>
<clipPath id="terminal-1126620272-line-15">
    <rect x="0" y="367.5" width="1708" height="24.65"/>
            </clipPath>
<clipPath id="terminal-1126620272-line-16">
    <rect x="0" y="391.9" width="1708" height="24.65"/>
            </clipPath>
<clipPath id="terminal-1126620272-line-17">
    <rect x="0" y="416.3" width="1708" height="24.65"/>
            </clipPath>
<clipPath id="terminal-1126620272-line-18">
    <rect x="0" y="440.7" width="1708" height="24.65"/>
            </clipPath>
<clipPath id="terminal-1126620272-line-19">
    <rect x="0" y="465.1" width="1708" height="24.65"/>
            </clipPath>
<clipPath id="terminal-1126620272-line-20">
    <rect x="0" y="489.5" width="1708" height="24.65"/>
            </clipPath>
<clipPath id="terminal-1126620272-line-21">
    <rect x="0" y="513.9" width="1708" height="24.65"/>
            </clipPath>
<clipPath id="terminal-1126620272-line-22">
    <rect x="0" y="538.3" width="1708" height="24.65"/>
            </clipPath>
<clipPath id="terminal-1126620272-line-23">
    <rect x="0" y="562.7" width="1708" height="24.65"/>
            </clipPath>
<clipPath id="terminal-1126620272-line-24">
    <rect x="0" y="587.1" width="1708" height="24.65"/>
            </clipPath>
<clipPath id="terminal-1126620272-line-25">
    <rect x="0" y="611.5" width="1708" height="24.65"/>
            </clipPath>
<clipPath id="terminal-1126620272-line-26">
    <rect x="0" y="635.9" width="1708" height="24.65"/>
            </clipPath>
<clipPath id="terminal-1126620272-line-27">
    <rect x="0" y="660.3" width="1708" height="24.65"/>
            </clipPath>
<clipPath id="terminal-1126620272-line-28">
    <rect x="0" y="684.7" width="1708" height="24.65"/>
            </clipPath>
<clipPath id="terminal-1126620272-line-29">
    <rect x="0" y="709.1" width="1708" height="24.65"/>
            </clipPath>
<clipPath id="terminal-1126620272-line-30">
    <rect x="0" y="733.5" width="1708" height="24.65"/>
            </clipPath>
    </defs>

    <rect fill="#292929" stroke="rgba(255,255,255,0.35)" stroke-width="1" x="1" y="1" width="1724" height="828.8" rx="8"/><text class="terminal-1126620272-title" fill="#c5c8c6" text-anchor="middle" x="862" y="27">trinops</text>
            <g transform="translate(26,22)">
            <circle cx="0" cy="0" r="7" fill="#ff5f57"/>
            <circle cx="22" cy="0" r="7" fill="#febc2e"/>
            <circle cx="44" cy="0" r="7" fill="#28c840"/>
            </g>
        
    <g transform="translate(9, 41)" clip-path="url(#terminal-1126620272-clip-terminal)">
    <rect fill="#242f38" x="0" y="1.5" width="12.2" height="24.65" shape-rendering="crispEdges"/><rect fill="#242f38" x="12.2" y="1.5" width="12.2" height="24.65" shape-rendering="crispEdges"/><rect fill="#242f38" x="24.4" y="1.5" width="61" height="24.65" shape-rendering="crispEdges"/><rect fill="#242f38" x="85.4" y="1.5" width="12.2" height="24.65" shape-rendering="crispEdges"/><rect fill="#242f38" x="97.6" y="1.5" width="695.4" height="24.65" shape-rendering="crispEdges"/><rect fill="#242f38" x="793" y="1.5" width="85.4" height="24.65" shape-rendering="crispEdges"/><rect fill="#242f38" x="878.4" y="1.5" width="707.6" height="24.65" shape-rendering="crispEdges"/><rect fill="#2c363f" x="1586" y="1.5" width="12.2" height="24.65" shape-rendering="crispEdges"/><rect fill="#2c363f" x="1598.2" y="1.5" width="97.6" height="24.65" shape-rendering="crispEdges"/><rect fill="#2c363f" x="1695.8" y="1.5" width="12.2" height="24.65" shape-rendering="crispEdges"/><rect fill="#242f38" x="0" y="25.9" width="12.2" height="24.65" shape-rendering="crispEdges"/><rect fill="#242f38" x="12.2" y="25.9" width="0" height="24.65" shape-rendering="crispEdges"/><rect fill="#242f38" x="12.2" y="25.9" width="1683.6" height="24.65" shape-rendering="crispEdges"/><rect fill="#242f38" x="1695.8" y="25.9" width="12.2" height="24.65" shape-rendering="crispEdges"/><rect fill="#121212" x="0" y="50.3" width="1708" height="24.65" shape-rendering="crispEdges"/><rect fill="#121212" x="0" y="74.7" width="1708" height="24.65" shape-rendering="crispEdges"/><rect fill="#121212" x="0" y="99.1" width="1708" height="24.65" shape-rendering="crispEdges"/><rect fill="#121212" x="0" y="123.5" width="1708" height="24.65" shape-rendering="crispEdges"/><rect fill="#121212" x="0" y="147.9" width="1708" height="24.65" shape-rendering="crispEdges"/><rect fill="#121212" x="0" y="172.3" width="1708" height="24.65" shape-rendering="crispEdges"/><rect fill="#121212" x="0" y="196.7" width="1708" height="24.65" shape-rendering="crispEdges"/><rect fill="#121212" x="0" y="221.1" width="1708" height="24.65" shape-rendering="crispEdges"/><rect fill="#121212" x="0" y="245.5" width="1708" height="24.65" shape-rendering="crispEdges"/><rect fill="#121212" x="0" y="269.9" width="1708" height="24.65" shape-rendering="crispEdges"/><rect fill="#121212" x="0" y="294.3" width="1708" height="24.65" shape-rendering="crispEdges"/><rect fill="#121212" x="0" y="318.7" width="1708" height="24.65" shape-rendering="crispEdges"/><rect fill="#121212" x="0" y="343.1" width="1708" height="24.65" shape-rendering="crispEdges"/><rect fill="#121212" x="0" y="367.5" width="707.6" height="24.65" shape-rendering="crispEdges"/><rect fill="#121212" x="707.6" y="367.5" width="292.8" height="24.65" shape-rendering="crispEdges"/><rect fill="#121212" x="1000.4" y="367.5" width="707.6" height="24.65" shape-rendering="crispEdges"/><rect fill="#121212" x="0" y="391.9" width="1708" height="24.65" shape-rendering="crispEdges"/><rect fill="#121212" x="0" y="416.3" width="1708" height="24.65" shape-rendering="crispEdges"/><rect fill="#121212" x="0" y="440.7" width="1708" height="24.65" shape-rendering="crispEdges"/><rect fill="#121212" x="0" y="465.1" width="1708" height="24.65" shape-rendering="crispEdges"/><rect fill="#121212" x="0" y="489.5" width="1708" height="24.65" shape-rendering="crispEdges"/><rect fill="#121212" x="0" y="513.9" width="1708" height="24.65" shape-rendering="crispEdges"/><rect fill="#121212" x="0" y="538.3" width="1708" height="24.65" shape-rendering="crispEdges"/><rect fill="#121212" x="0" y="562.7" width="1708" height="24.65" shape-rendering="crispEdges"/><rect fill="#121212" x="0" y="587.1" width="1708" height="24.65" shape-rendering="crispEdges"/><rect fill="#121212" x="0" y="611.5" width="1708" height="24.65" shape-rendering="crispEdges"/><rect fill="#121212" x="0" y="635.9" width="1708" height="24.65" shape-rendering="crispEdges"/><rect fill="#121212" x="0" y="660.3" width="1708" height="24.65" shape-rendering="crispEdges"/><rect fill="#121212" x="0" y="684.7" width="1708" height="24.65" shape-rendering="crispEdges"/><rect fill="#121212" x="0" y="709.1" width="1708" height="24.65" shape-rendering="crispEdges"/><rect fill="#242f38" x="0" y="733.5" width="12.2" height="24.65" shape-rendering="crispEdges"/><rect fill="#242f38" x="12.2" y="733.5" width="463.6" height="24.65" shape-rendering="crispEdges"/><rect fill="#242f38" x="475.8" y="733.5" width="1220" height="24.65" shape-rendering="crispEdges"/><rect fill="#242f38" x="1695.8" y="733.5" width="12.2" height="24.65" shape-rendering="crispEdges"/><rect fill="#242f38" x="0" y="757.9" width="36.6" height="24.65" shape-rendering="crispEdges"/><rect fill="#242f38" x="36.6" y="757.9" width="61" height="24.65" shape-rendering="crispEdges"/><rect fill="#242f38" x="97.6" y="757.9" width="36.6" height="24.65" shape-rendering="crispEdges"/><rect fill="#242f38" x="134.2" y="757.9" width="97.6" height="24.65" shape-rendering="crispEdges"/><rect fill="#242f38" x="231.8" y="757.9" width="36.6" height="24.65" shape-rendering="crispEdges"/><rect fill="#242f38" x="268.4" y="757.9" width="134.2" height="24.65" shape-rendering="crispEdges"/><rect fill="#242f38" x="402.6" y="757.9" width="36.6" height="24.65" shape-rendering="crispEdges"/><rect fill="#242f38" x="439.2" y="757.9" width="146.4" height="24.65" shape-rendering="crispEdges"/><rect fill="#242f38" x="585.6" y="757.9" width="61" height="24.65" shape-rendering="crispEdges"/><rect fill="#242f38" x="646.6" y="757.9" width="158.6" height="24.65" shape-rendering="crispEdges"/><rect fill="#242f38" x="805.2" y="757.9" width="36.6" height="24.65" shape-rendering="crispEdges"/><rect fill="#242f38" x="841.8" y="757.9" width="134.2" height="24.65" shape-rendering="crispEdges"/><rect fill="#242f38" x="976" y="757.9" width="585.6" height="24.65" shape-rendering="crispEdges"/><rect fill="#242f38" x="1561.6" y="757.9" width="12.2" height="24.65" shape-rendering="crispEdges"/><rect fill="#242f38" x="1573.8" y="757.9" width="24.4" height="24.65" shape-rendering="crispEdges"/><rect fill="#242f38" x="1598.2" y="757.9" width="97.6" height="24.65" shape-rendering="crispEdges"/><rect fill="#242f38" x="1695.8" y="757.9" width="12.2" height="24.65" shape-rendering="crispEdges"/>
    <g class="terminal-1126620272-matrix">
    <text class="terminal-1126620272-r2" x="12.2" y="20" textLength="12.2" clip-path="url(#terminal-1126620272-line-0)">⭘</text><text class="terminal-1126620272-r2" x="793" y="20" textLength="85.4" clip-path="url(#terminal-1126620272-line-0)">trinops</text><text class="terminal-1126620272-r3" x="1598.2" y="20" textLength="97.6" clip-path="url(#terminal-1126620272-line-0)">00:29:22</text><text class="terminal-1126620272-r1" x="1708" y="20" textLength="12.2" clip-path="url(#terminal-1126620272-line-0)">
</text><text class="terminal-1126620272-r1" x="1708" y="44.4" textLength="12.2" clip-path="url(#terminal-1126620272-line-1)">
</text><text class="terminal-1126620272-r1" x="1708" y="68.8" textLength="12.2" clip-path="url(#terminal-1126620272-line-2)">
</text><text class="terminal-1126620272-r1" x="1708" y="93.2" textLength="12.2" clip-path="url(#terminal-1126620272-line-3)">
</text><text class="terminal-1126620272-r1" x="1708" y="117.6" textLength="12.2" clip-path="url(#terminal-1126620272-line-4)">
</text><text class="terminal-1126620272-r1" x="1708" y="142" textLength="12.2" clip-path="url(#terminal-1126620272-line-5)">
</text><text class="terminal-1126620272-r1" x="1708" y="166.4" textLength="12.2" clip-path="url(#terminal-1126620272-line-6)">
</text><text class="terminal-1126620272-r1" x="1708" y="190.8" textLength="12.2" clip-path="url(#terminal-1126620272-line-7)">
</text><text class="terminal-1126620272-r1" x="1708" y="215.2" textLength="12.2" clip-path="url(#terminal-1126620272-line-8)">
</text><text class="terminal-1126620272-r1" x="1708" y="239.6" textLength="12.2" clip-path="url(#terminal-1126620272-line-9)">
</text><text class="terminal-1126620272-r1" x="1708" y="264" textLength="12.2" clip-path="url(#terminal-1126620272-line-10)">
</text><text class="terminal-1126620272-r1" x="1708" y="288.4" textLength="12.2" clip-path="url(#terminal-1126620272-line-11)">
</text><text class="terminal-1126620272-r1" x="1708" y="312.8" textLength="12.2" clip-path="url(#terminal-1126620272-line-12)">
</text><text class="terminal-1126620272-r1" x="1708" y="337.2" textLength="12.2" clip-path="url(#terminal-1126620272-line-13)">
</text><text class="terminal-1126620272-r1" x="1708" y="361.6" textLength="12.2" clip-path="url(#terminal-1126620272-line-14)">
</text><text class="terminal-1126620272-r5" x="707.6" y="386" textLength="292.8" clip-path="url(#terminal-1126620272-line-15)">No&#160;queries&#160;for&#160;analytics</text><text class="terminal-1126620272-r1" x="1708" y="386" textLength="12.2" clip-path="url(#terminal-1126620272-line-15)">
</text><text class="terminal-1126620272-r1" x="1708" y="410.4" textLength="12.2" clip-path="url(#terminal-1126620272-line-16)">
</text><text class="terminal-1126620272-r1" x="1708" y="434.8" textLength="12.2" clip-path="url(#terminal-1126620272-line-17)">
</text><text class="terminal-1126620272-r1" x="1708" y="459.2" textLength="12.2" clip-path="url(#terminal-1126620272-line-18)">
</text><text class="terminal-1126620272-r1" x="1708" y="483.6" textLength="12.2" clip-path="url(#terminal-1126620272-line-19)">
</text><text class="terminal-1126620272-r1" x="1708" y="508" textLength="12.2" clip-path="url(#terminal-1126620272-line-20)">
</text><text class="terminal-1126620272-r1" x="1708" y="532.4" textLength="12.2" clip-path="url(#terminal-1126620272-line-21)">
</text><text class="terminal-1126620272-r1" x="1708" y="556.8" textLength="12.2" clip-path="url(#terminal-1126620272-line-22)">
</text><text class="terminal-1126620272-r1" x="1708" y="581.2" textLength="12.2" clip-path="url(#terminal-1126620272-line-23)">
</text><text class="terminal-1126620272-r1" x="1708" y="605.6" textLength="12.2" clip-path="url(#terminal-1126620272-line-24)">
</text><text class="terminal-1126620272-r1" x="1708" y="630" textLength="12.2" clip-path="url(#terminal-1126620272-line-25)">
</text><text class="terminal-1126620272-r1" x="1708" y="654.4" textLength="12.2" clip-path="url(#terminal-1126620272-line-26)">
</text><text class="terminal-1126620272-r1" x="1708" y="678.8" textLength="12.2" clip-path="url(#terminal-1126620272-line-27)">
</text><text class="terminal-1126620272-r1" x="1708" y="703.2" textLength="12.2" clip-path="url(#terminal-1126620272-line-28)">
</text><text class="terminal-1126620272-r1" x="1708" y="727.6" textLength="12.2" clip-path="url(#terminal-1126620272-line-29)">
</text><text class="terminal-1126620272-r4" x="12.2" y="752" textLength="463.6" clip-path="url(#terminal-1126620272-line-30)">analytics&#160;│&#160;0&#160;queries&#160;│&#160;refresh&#160;in&#160;30s</text><text class="terminal-1126620272-r1" x="1708" y="752" textLength="12.2" clip-path="url(#terminal-1126620272-line-30)">
</text><text class="terminal-1126620272-r6" x="0" y="776.4" textLength="36.6" clip-path="url(#terminal-1126620272-line-31)">&#160;q&#160;</text><text class="terminal-1126620272-r2" x="36.6" y="776.4" textLength="61" clip-path="url(#terminal-1126620272-line-31)">Quit&#160;</text><text class="terminal-1126620272-r6" x="97.6" y="776.4" textLength="36.6" clip-path="url(#terminal-1126620272-line-31)">&#160;r&#160;</text><text class="terminal-1126620272-r2" x="134.2" y="776.4" textLength="97.6" clip-path="url(#terminal-1126620272-line-31)">Refresh&#160;</text><text class="terminal-1126620272-r6" x="231.8" y="776.4" textLength="36.6" clip-path="url(#terminal-1126620272-line-31)">&#160;u&#160;</text><text class="terminal-1126620272-r2" x="268.4" y="776.4" textLength="134.2" clip-path="url(#terminal-1126620272-line-31)">My&#160;queries&#160;</text><text class="terminal-1126620272-r6" x="402.6" y="776.4" textLength="36.6" clip-path="url(#terminal-1126620272-line-31)">&#160;a&#160;</text><text class="terminal-1126620272-r2" x="439.2" y="776.4" textLength="146.4" clip-path="url(#terminal-1126620272-line-31)">All&#160;queries&#160;</text><text class="terminal-1126620272-r6" x="585.6" y="776.4" textLength="61" clip-path="url(#terminal-1126620272-line-31)">&#160;-/+&#160;</text><text class="terminal-1126620272-r2" x="646.6" y="776.4" textLength="158.6" clip-path="url(#terminal-1126620272-line-31)">Refresh&#160;rate&#160;</text><text class="terminal-1126620272-r6" x="805.2" y="776.4" textLength="36.6" clip-path="url(#terminal-1126620272-line-31)">&#160;k&#160;</text><text class="terminal-1126620272-r2" x="841.8" y="776.4" textLength="134.2" clip-path="url(#terminal-1126620272-line-31)">Kill&#160;query&#160;</text><text class="terminal-1126620272-r7" x="1561.6" y="776.4" textLength="12.2" clip-path="url(#terminal-1126620272-line-31)">▏</text><text class="terminal-1126620272-r6" x="1573.8" y="776.4" textLength="24.4" clip-path="url(#terminal-1126620272-line-31)">^p</text><text class="terminal-1126620272-r2" x="1598.2" y="776.4" textLength="97.6" clip-path="url(#terminal-1126620272-line-31)">&#160;palette</text>
    </g>
    </g>
</svg>
