<svg class="rich-terminal" viewBox="0 0 1482 635.5999999999999" xmlns="http://www.w3.org/2000/svg">
    <!-- Generated with Rich https://www.textualize.io -->
    <style>

    @font-face {
        font-family: "Fira Code";
        src: local("FiraCode-Regular"),
                url("https://cdnjs.cloudflare.com/ajax/libs/firacode/6.2.0/woff2/FiraCode-Regular.woff2") format("woff2"),
                url("https://cdnjs.cloudflare.com/ajax/libs/firacode/6.2.0/woff/FiraCode-Regular.woff") format("woff");
        font-style: normal;
        font-weight: 400;
    }
    @font-face {
        font-family: "Fira Code";
        src: local("FiraCode-Bold"),
                url("https://cdnjs.cloudflare.com/ajax/libs/firacode/6.2.0/woff2/FiraCode-Bold.woff2") format("woff2"),
                url("https://cdnjs.cloudflare.com/ajax/libs/firacode/6.2.0/woff/FiraCode-Bold.woff") format("woff");
        font-style: bold;
        font-weight: 700;
    }

    .terminal-3024615814-matrix {
        font-family: Fira Code, monospace;
        font-size: 20px;
        line-height: 24.4px;
        font-variant-east-asian: full-width;
    }

    .terminal-3024615814-title {
        font-size: 18px;
        font-weight: bold;
        font-family: arial;
    }

    .terminal-3024615814-r1 { fill: #c5c8c6 }
.terminal-3024615814-r2 { fill: #e0e0e0 }
.terminal-3024615814-r3 { fill: #c5c6c7 }
.terminal-3024615814-r4 { fill: #e0e0e0;font-weight: bold }
.terminal-3024615814-r5 { fill: #ddedf9;font-weight: bold }
.terminal-3024615814-r6 { fill: #272727 }
.terminal-3024615814-r7 { fill: #003054 }
.terminal-3024615814-r8 { fill: #211505;font-weight: bold }
.terminal-3024615814-r9 { fill: #ffa62b;font-weight: bold }
.terminal-3024615814-r10 { fill: #495259 }
    </style>

    <defs>
    <clipPath id="terminal-3024615814-clip-terminal">
      <rect x="0" y="0" width="1463.0" height="584.5999999999999" />
    </clipPath>
    <clipPath id="terminal-3024615814-line-0">
    <rect x="0" y="1.5" width="1464" height="24.65"/>
            </clipPath>
<clipPath id="terminal-3024615814-line-1">
    <rect x="0" y="25.9" width="1464" height="24.65"/>
            </clipPath>
<clipPath id="terminal-3024615814-line-2">
    <rect x="0" y="50.3" width="1464" height="24.65"/>
            </clipPath>
<clipPath id="terminal-3024615814-line-3">
    <rect x="0" y="74.7" width="1464" height="24.65"/>
            </clipPath>
<clipPath id="terminal-3024615814-line-4">
    <rect x="0" y="99.1" width="1464" height="24.65"/>
            </clipPath>
<clipPath id="terminal-3024615814-line-5">
    <rect x="0" y="123.5" width="1464" height="24.65"/>
            </clipPath>
<clipPath id="terminal-3024615814-line-6">
    <rect x="0" y="147.9" width="1464" height="24.65"/>
            </clipPath>
<clipPath id="terminal-3024615814-line-7">
    <rect x="0" y="172.3" width="1464" height="24.65"/>
            </clipPath>
<clipPath id="terminal-3024615814-line-8">
    <rect x="0" y="196.7" width="1464" height="24.65"/>
            </clipPath>
<clipPath id="terminal-3024615814-line-9">
    <rect x="0" y="221.1" width="1464" height="24.65"/>
            </clipPath>
<clipPath id="terminal-3024615814-line-10">
    <rect x="0" y="245.5" width="1464" height="24.65"/>
            </clipPath>
<clipPath id="terminal-3024615814-line-11">
    <rect x="0" y="269.9" width="1464" height="24.65"/>
            </clipPath>
<clipPath id="terminal-3024615814-line-12">
    <rect x="0" y="294.3" width="1464" height="24.65"/>
            </clipPath>
<clipPath id="terminal-3024615814-line-13">
    <rect x="0" y="318.7" width="1464" height="24.65"/>
            </clipPath>
<clipPath id="terminal-3024615814-line-14">
    <rect x="0" y="343.1" width="1464" height="24.65"/>
            </clipPath>
<clipPath id="terminal-3024615814-line-15">
    <rect x="0" y="367.5" width="1464" height="24.65"/>
            </clipPath>
<clipPath id="terminal-3024615814-line-16">
    <rect x="0" y="391.9" width="1464" height="24.65"/>
            </clipPath>
<clipPath id="terminal-3024615814-line-17">
    <rect x="0" y="416.3" width="1464" height="24.65"/>
            </clipPath>
<clipPath id="terminal-3024615814-line-18">
    <rect x="0" y="440.7" width="1464" height="24.65"/>
            </clipPath>
<clipPath id="terminal-3024615814-line-19">
    <rect x="0" y="465.1" width="1464" height="24.65"/>
            </clipPath>
<clipPath id="terminal-3024615814-line-20">
    <rect x="0" y="489.5" width="1464" height="24.65"/>
            </clipPath>
<clipPath id="terminal-3024615814-line-21">
    <rect x="0" y="513.9" width="1464" height="24.65"/>
            </clipPath>
<clipPath id="terminal-3024615814-line-22">
    <rect x="0" y="538.3" width="1464" height="24.65"/>
            </clipPath>
    </defs>

    <rect fill="#292929" stroke="rgba(255,255,255,0.35)" stroke-width="1" x="1" y="1" width="1480" height="633.6" rx="8"/><text class="terminal-3024615814-title" fill="#c5c8c6" text-anchor="middle" x="740" y="27">trinops</text>
            <g transform="translate(26,22)">
            <circle cx="0" cy="0" r="7" fill="#ff5f57"/>
            <circle cx="22" cy="0" r="7" fill="#febc2e"/>
            <circle cx="44" cy="0" r="7" fill="#28c840"/>
            </g>
        
    <g transform="translate(9, 41)" clip-path="url(#terminal-3024615814-clip-terminal)">
    <rect fill="#242f38" x="0" y="1.5" width="12.2" height="24.65" shape-rendering="crispEdges"/><rect fill="#242f38" x="12.2" y="1.5" width="12.2" height="24.65" shape-rendering="crispEdges"/><rect fill="#242f38" x="24.4" y="1.5" width="61" height="24.65" shape-rendering="crispEdges"/><rect fill="#242f38" x="85.4" y="1.5" width="12.2" height="24.65" shape-rendering="crispEdges"/><rect fill="#242f38" x="97.6" y="1.5" width="573.4" height="24.65" shape-rendering="crispEdges"/><rect fill="#242f38" x="671" y="1.5" width="85.4" height="24.65" shape-rendering="crispEdges"/><rect fill="#242f38" x="756.4" y="1.5" width="585.6" height="24.65" shape-rendering="crispEdges"/><rect fill="#2c363f" x="1342" y="1.5" width="12.2" height="24.65" shape-rendering="crispEdges"/><rect fill="#2c363f" x="1354.2" y="1.5" width="97.6" height="24.65" shape-rendering="crispEdges"/><rect fill="#2c363f" x="1451.8" y="1.5" width="12.2" height="24.65" shape-rendering="crispEdges"/><rect fill="#2d3740" x="0" y="25.9" width="353.8" height="24.65" shape-rendering="crispEdges"/><rect fill="#2d3740" x="353.8" y="25.9" width="134.2" height="24.65" shape-rendering="crispEdges"/><rect fill="#2d3740" x="488" y="25.9" width="158.6" height="24.65" shape-rendering="crispEdges"/><rect fill="#2d3740" x="646.6" y="25.9" width="109.8" height="24.65" shape-rendering="crispEdges"/><rect fill="#2d3740" x="756.4" y="25.9" width="158.6" height="24.65" shape-rendering="crispEdges"/><rect fill="#2d3740" x="915" y="25.9" width="109.8" height="24.65" shape-rendering="crispEdges"/><rect fill="#2d3740" x="1024.8" y="25.9" width="439.2" height="24.65" shape-rendering="crispEdges"/><rect fill="#0178d4" x="0" y="50.3" width="353.8" height="24.65" shape-rendering="crispEdges"/><rect fill="#0178d4" x="353.8" y="50.3" width="134.2" height="24.65" shape-rendering="crispEdges"/><rect fill="#0178d4" x="488" y="50.3" width="158.6" height="24.65" shape-rendering="crispEdges"/><rect fill="#0178d4" x="646.6" y="50.3" width="109.8" height="24.65" shape-rendering="crispEdges"/><rect fill="#0178d4" x="756.4" y="50.3" width="158.6" height="24.65" shape-rendering="crispEdges"/><rect fill="#0178d4" x="915" y="50.3" width="109.8" height="24.65" shape-rendering="crispEdges"/><rect fill="#0178d4" x="1024.8" y="50.3" width="439.2" height="24.65" shape-rendering="crispEdges"/><rect fill="#272727" x="0" y="74.7" width="353.8" height="24.65" shape-rendering="crispEdges"/><rect fill="#272727" x="353.8" y="74.7" width="134.2" height="24.65" shape-rendering="crispEdges"/><rect fill="#272727" x="488" y="74.7" width="158.6" height="24.65" shape-rendering="crispEdges"/><rect fill="#272727" x="646.6" y="74.7" width="109.8" height="24.65" shape-rendering="crispEdges"/><rect fill="#272727" x="756.4" y="74.7" width="158.6" height="24.65" shape-rendering="crispEdges"/><rect fill="#272727" x="915" y="74.7" width="109.8" height="24.65" shape-rendering="crispEdges"/><rect fill="#272727" x="1024.8" y="74.7" width="439.2" height="24.65" shape-rendering="crispEdges"/><rect fill="#272727" x="0" y="99.1" width="353.8" height="24.65" shape-rendering="crispEdges"/><rect fill="#272727" x="353.8" y="99.1" width="134.2" height="24.65" shape-rendering="crispEdges"/><rect fill="#272727" x="488" y="99.1" width="158.6" height="24.65" shape-rendering="crispEdges"/><rect fill="#272727" x="646.6" y="99.1" width="109.8" height="24.65" shape-rendering="crispEdges"/><rect fill="#272727" x="756.4" y="99.1" width="158.6" height="24.65" shape-rendering="crispEdges"/><rect fill="#272727" x="915" y="99.1" width="109.8" height="24.65" shape-rendering="crispEdges"/><rect fill="#272727" x="1024.8" y="99.1" width="439.2" height="24.65" shape-rendering="crispEdges"/><rect fill="#272727" x="0" y="123.5" width="353.8" height="24.65" shape-rendering="crispEdges"/><rect fill="#272727" x="353.8" y="123.5" width="134.2" height="24.65" shape-rendering="crispEdges"/><rect fill="#272727" x="488" y="123.5" width="158.6" height="24.65" shape-rendering="crispEdges"/><rect fill="#272727" x="646.6" y="123.5" width="109.8" height="24.65" shape-rendering="crispEdges"/><rect fill="#272727" x="756.4" y="123.5" width="158.6" height="24.65" shape-rendering="crispEdges"/><rect fill="#272727" x="915" y="123.5" width="109.8" height="24.65" shape-rendering="crispEdges"/><rect fill="#272727" x="1024.8" y="123.5" width="439.2" height="24.65" shape-rendering="crispEdges"/><rect fill="#272727" x="0" y="147.9" width="353.8" height="24.65" shape-rendering="crispEdges"/><rect fill="#272727" x="353.8" y="147.9" width="134.2" height="24.65" shape-rendering="crispEdges"/><rect fill="#272727" x="488" y="147.9" width="158.6" height="24.65" shape-rendering="crispEdges"/><rect fill="#272727" x="646.6" y="147.9" width="109.8" height="24.65" shape-rendering="crispEdges"/><rect fill="#272727" x="756.4" y="147.9" width="158.6" height="24.65" shape-rendering="crispEdges"/><rect fill="#272727" x="915" y="147.9" width="109.8" height="24.65" shape-rendering="crispEdges"/><rect fill="#272727" x="1024.8" y="147.9" width="439.2" height="24.65" shape-rendering="crispEdges"/><rect fill="#272727" x="0" y="172.3" width="353.8" height="24.65" shape-rendering="crispEdges"/><rect fill="#272727" x="353.8" y="172.3" width="134.2" height="24.65" shape-rendering="crispEdges"/><rect fill="#272727" x="488" y="172.3" width="158.6" height="24.65" shape-rendering="crispEdges"/><rect fill="#272727" x="646.6" y="172.3" width="109.8" height="24.65" shape-rendering="crispEdges"/><rect fill="#272727" x="756.4" y="172.3" width="158.6" height="24.65" shape-rendering="crispEdges"/><rect fill="#272727" x="915" y="172.3" width="109.8" height="24.65" shape-rendering="crispEdges"/><rect fill="#272727" x="1024.8" y="172.3" width="439.2" height="24.65" shape-rendering="crispEdges"/><rect fill="#272727" x="0" y="196.7" width="353.8" height="24.65" shape-rendering="crispEdges"/><rect fill="#272727" x="353.8" y="196.7" width="134.2" height="24.65" shape-rendering="crispEdges"/><rect fill="#272727" x="488" y="196.7" width="158.6" height="24.65" shape-rendering="crispEdges"/><rect fill="#272727" x="646.6" y="196.7" width="109.8" height="24.65" shape-rendering="crispEdges"/><rect fill="#272727" x="756.4" y="196.7" width="158.6" height="24.65" shape-rendering="crispEdges"/><rect fill="#272727" x="915" y="196.7" width="109.8" height="24.65" shape-rendering="crispEdges"/><rect fill="#272727" x="1024.8" y="196.7" width="439.2" height="24.65" shape-rendering="crispEdges"/><rect fill="#272727" x="0" y="221.1" width="1464" height="24.65" shape-rendering="crispEdges"/><rect fill="#272727" x="0" y="245.5" width="1464" height="24.65" shape-rendering="crispEdges"/><rect fill="#272727" x="0" y="269.9" width="1464" height="24.65" shape-rendering="crispEdges"/><rect fill="#272727" x="0" y="294.3" width="1464" height="24.65" shape-rendering="crispEdges"/><rect fill="#272727" x="0" y="318.7" width="1464" height="24.65" shape-rendering="crispEdges"/><rect fill="#272727" x="0" y="343.1" width="1464" height="24.65" shape-rendering="crispEdges"/><rect fill="#272727" x="0" y="367.5" width="1464" height="24.65" shape-rendering="crispEdges"/><rect fill="#272727" x="0" y="391.9" width="1464" height="24.65" shape-rendering="crispEdges"/><rect fill="#272727" x="0" y="416.3" width="1464" height="24.65" shape-rendering="crispEdges"/><rect fill="#272727" x="0" y="440.7" width="1464" height="24.65" shape-rendering="crispEdges"/><rect fill="#272727" x="0" y="465.1" width="1464" height="24.65" shape-rendering="crispEdges"/><rect fill="#272727" x="0" y="489.5" width="1464" height="24.65" shape-rendering="crispEdges"/><rect fill="#003054" x="0" y="513.9" width="12.2" height="24.65" shape-rendering="crispEdges"/><rect fill="#003054" x="12.2" y="513.9" width="12.2" height="24.65" shape-rendering="crispEdges"/><rect fill="#003054" x="24.4" y="513.9" width="12.2" height="24.65" shape-rendering="crispEdges"/><rect fill="#003054" x="36.6" y="513.9" width="12.2" height="24.65" shape-rendering="crispEdges"/><rect fill="#003054" x="48.8" y="513.9" width="12.2" height="24.65" shape-rendering="crispEdges"/><rect fill="#003054" x="61" y="513.9" width="12.2" height="24.65" shape-rendering="crispEdges"/><rect fill="#003054" x="73.2" y="513.9" width="12.2" height="24.65" shape-rendering="crispEdges"/><rect fill="#003054" x="85.4" y="513.9" width="12.2" height="24.65" shape-rendering="crispEdges"/><rect fill="#003054" x="97.6" y="513.9" width="12.2" height="24.65" shape-rendering="crispEdges"/><rect fill="#003054" x="109.8" y="513.9" width="12.2" height="24.65" shape-rendering="crispEdges"/><rect fill="#003054" x="122" y="513.9" width="12.2" height="24.65" shape-rendering="crispEdges"/><rect fill="#003054" x="134.2" y="513.9" width="12.2" height="24.65" shape-rendering="crispEdges"/><rect fill="#003054" x="146.4" y="513.9" width="12.2" height="24.65" shape-rendering="crispEdges"/><rect fill="#003054" x="158.6" y="513.9" width="12.2" height="24.65" shape-rendering="crispEdges"/><rect fill="#003054" x="170.8" y="513.9" width="12.2" height="24.65" shape-rendering="crispEdges"/><rect fill="#003054" x="183" y="513.9" width="12.2" height="24.65" shape-rendering="crispEdges"/><rect fill="#003054" x="195.2" y="513.9" width="12.2" height="24.65" shape-rendering="crispEdges"/><rect fill="#003054" x="207.4" y="513.9" width="12.2" height="24.65" shape-rendering="crispEdges"/><rect fill="#003054" x="219.6" y="513.9" width="12.2" height="24.65" shape-rendering="crispEdges"/><rect fill="#003054" x="231.8" y="513.9" width="12.2" height="24.65" shape-rendering="crispEdges"/><rect fill="#003054" x="244" y="513.9" width="12.2" height="24.65" shape-rendering="crispEdges"/><rect fill="#003054" x="256.2" y="513.9" width="12.2" height="24.65" shape-rendering="crispEdges"/><rect fill="#003054" x="268.4" y="513.9" width="12.2" height="24.65" shape-rendering="crispEdges"/><rect fill="#003054" x="280.6" y="513.9" width="12.2" height="24.65" shape-rendering="crispEdges"/><rect fill="#003054" x="292.8" y="513.9" width="12.2" height="24.65" shape-rendering="crispEdges"/><rect fill="#003054" x="305" y="513.9" width="12.2" height="24.65" shape-rendering="crispEdges"/><rect fill="#003054" x="317.2" y="513.9" width="12.2" height="24.65" shape-rendering="crispEdges"/><rect fill="#003054" x="329.4" y="513.9" width="12.2" height="24.65" shape-rendering="crispEdges"/><rect fill="#003054" x="341.6" y="513.9" width="12.2" height="24.65" shape-rendering="crispEdges"/><rect fill="#003054" x="353.8" y="513.9" width="12.2" height="24.65" shape-rendering="crispEdges"/><rect fill="#003054" x="366" y="513.9" width="12.2" height="24.65" shape-rendering="crispEdges"/><rect fill="#003054" x="378.2" y="513.9" width="12.2" height="24.65" shape-rendering="crispEdges"/><rect fill="#003054" x="390.4" y="513.9" width="12.2" height="24.65" shape-rendering="crispEdges"/><rect fill="#003054" x="402.6" y="513.9" width="12.2" height="24.65" shape-rendering="crispEdges"/><rect fill="#003054" x="414.8" y="513.9" width="12.2" height="24.65" shape-rendering="crispEdges"/><rect fill="#003054" x="427" y="513.9" width="12.2" height="24.65" shape-rendering="crispEdges"/><rect fill="#003054" x="439.2" y="513.9" width="12.2" height="24.65" shape-rendering="crispEdges"/><rect fill="#003054" x="451.4" y="513.9" width="12.2" height="24.65" shape-rendering="crispEdges"/><rect fill="#003054" x="463.6" y="513.9" width="12.2" height="24.65" shape-rendering="crispEdges"/><rect fill="#003054" x="475.8" y="513.9" width="12.2" height="24.65" shape-rendering="crispEdges"/><rect fill="#003054" x="488" y="513.9" width="12.2" height="24.65" shape-rendering="crispEdges"/><rect fill="#003054" x="500.2" y="513.9" width="12.2" height="24.65" shape-rendering="crispEdges"/><rect fill="#003054" x="512.4" y="513.9" width="12.2" height="24.65" shape-rendering="crispEdges"/><rect fill="#003054" x="524.6" y="513.9" width="12.2" height="24.65" shape-rendering="crispEdges"/><rect fill="#003054" x="536.8" y="513.9" width="12.2" height="24.65" shape-rendering="crispEdges"/><rect fill="#003054" x="549" y="513.9" width="12.2" height="24.65" shape-rendering="crispEdges"/><rect fill="#003054" x="561.2" y="513.9" width="12.2" height="24.65" shape-rendering="crispEdges"/><rect fill="#003054" x="573.4" y="513.9" width="12.2" height="24.65" shape-rendering="crispEdges"/><rect fill="#003054" x="585.6" y="513.9" width="12.2" height="24.65" shape-rendering="crispEdges"/><rect fill="#003054" x="597.8" y="513.9" width="12.2" height="24.65" shape-rendering="crispEdges"/><rect fill="#003054" x="610" y="513.9" width="12.2" height="24.65" shape-rendering="crispEdges"/><rect fill="#003054" x="622.2" y="513.9" width="12.2" height="24.65" shape-rendering="crispEdges"/><rect fill="#003054" x="634.4" y="513.9" width="12.2" height="24.65" shape-rendering="crispEdges"/><rect fill="#003054" x="646.6" y="513.9" width="12.2" height="24.65" shape-rendering="crispEdges"/><rect fill="#003054" x="658.8" y="513.9" width="12.2" height="24.65" shape-rendering="crispEdges"/><rect fill="#003054" x="671" y="513.9" width="12.2" height="24.65" shape-rendering="crispEdges"/><rect fill="#003054" x="683.2" y="513.9" width="12.2" height="24.65" shape-rendering="crispEdges"/><rect fill="#003054" x="695.4" y="513.9" width="12.2" height="24.65" shape-rendering="crispEdges"/><rect fill="#003054" x="707.6" y="513.9" width="12.2" height="24.65" shape-rendering="crispEdges"/><rect fill="#003054" x="719.8" y="513.9" width="12.2" height="24.65" shape-rendering="crispEdges"/><rect fill="#003054" x="732" y="513.9" width="12.2" height="24.65" shape-rendering="crispEdges"/><rect fill="#003054" x="744.2" y="513.9" width="12.2" height="24.65" shape-rendering="crispEdges"/><rect fill="#003054" x="756.4" y="513.9" width="12.2" height="24.65" shape-rendering="crispEdges"/><rect fill="#003054" x="768.6" y="513.9" width="12.2" height="24.65" shape-rendering="crispEdges"/><rect fill="#003054" x="780.8" y="513.9" width="12.2" height="24.65" shape-rendering="crispEdges"/><rect fill="#003054" x="793" y="513.9" width="12.2" height="24.65" shape-rendering="crispEdges"/><rect fill="#003054" x="805.2" y="513.9" width="12.2" height="24.65" shape-rendering="crispEdges"/><rect fill="#003054" x="817.4" y="513.9" width="12.2" height="24.65" shape-rendering="crispEdges"/><rect fill="#003054" x="829.6" y="513.9" width="12.2" height="24.65" shape-rendering="crispEdges"/><rect fill="#003054" x="841.8" y="513.9" width="12.2" height="24.65" shape-rendering="crispEdges"/><rect fill="#003054" x="854" y="513.9" width="12.2" height="24.65" shape-rendering="crispEdges"/><rect fill="#003054" x="866.2" y="513.9" width="12.2" height="24.65" shape-rendering="crispEdges"/><rect fill="#000000" x="878.4" y="513.9" width="12.2" height="24.65" shape-rendering="crispEdges"/><rect fill="#000000" x="890.6" y="513.9" width="12.2" height="24.65" shape-rendering="crispEdges"/><rect fill="#000000" x="902.8" y="513.9" width="12.2" height="24.65" shape-rendering="crispEdges"/><rect fill="#000000" x="915" y="513.9" width="12.2" height="24.65" shape-rendering="crispEdges"/><rect fill="#000000" x="927.2" y="513.9" width="12.2" height="24.65" shape-rendering="crispEdges"/><rect fill="#000000" x="939.4" y="513.9" width="12.2" height="24.65" shape-rendering="crispEdges"/><rect fill="#000000" x="951.6" y="513.9" width="12.2" height="24.65" shape-rendering="crispEdges"/><rect fill="#000000" x="963.8" y="513.9" width="12.2" height="24.65" shape-rendering="crispEdges"/><rect fill="#000000" x="976" y="513.9" width="12.2" height="24.65" shape-rendering="crispEdges"/><rect fill="#000000" x="988.2" y="513.9" width="12.2" height="24.65" shape-rendering="crispEdges"/><rect fill="#000000" x="1000.4" y="513.9" width="12.2" height="24.65" shape-rendering="crispEdges"/><rect fill="#000000" x="1012.6" y="513.9" width="12.2" height="24.65" shape-rendering="crispEdges"/><rect fill="#000000" x="1024.8" y="513.9" width="12.2" height="24.65" shape-rendering="crispEdges"/><rect fill="#000000" x="1037" y="513.9" width="12.2" height="24.65" shape-rendering="crispEdges"/><rect fill="#000000" x="1049.2" y="513.9" width="12.2" height="24.65" shape-rendering="crispEdges"/><rect fill="#000000" x="1061.4" y="513.9" width="12.2" height="24.65" shape-rendering="crispEdges"/><rect fill="#000000" x="1073.6" y="513.9" width="12.2" height="24.65" shape-rendering="crispEdges"/><rect fill="#000000" x="1085.8" y="513.9" width="12.2" height="24.65" shape-rendering="crispEdges"/><rect fill="#000000" x="1098" y="513.9" width="12.2" height="24.65" shape-rendering="crispEdges"/><rect fill="#000000" x="1110.2" y="513.9" width="12.2" height="24.65" shape-rendering="crispEdges"/><rect fill="#000000" x="1122.4" y="513.9" width="12.2" height="24.65" shape-rendering="crispEdges"/><rect fill="#000000" x="1134.6" y="513.9" width="12.2" height="24.65" shape-rendering="crispEdges"/><rect fill="#000000" x="1146.8" y="513.9" width="12.2" height="24.65" shape-rendering="crispEdges"/><rect fill="#000000" x="1159" y="513.9" width="12.2" height="24.65" shape-rendering="crispEdges"/><rect fill="#000000" x="1171.2" y="513.9" width="12.2" height="24.65" shape-rendering="crispEdges"/><rect fill="#000000" x="1183.4" y="513.9" width="12.2" height="24.65" shape-rendering="crispEdges"/><rect fill="#000000" x="1195.6" y="513.9" width="12.2" height="24.65" shape-rendering="crispEdges"/><rect fill="#000000" x="1207.8" y="513.9" width="12.2" height="24.65" shape-rendering="crispEdges"/><rect fill="#000000" x="1220" y="513.9" width="12.2" height="24.65" shape-rendering="crispEdges"/><rect fill="#000000" x="1232.2" y="513.9" width="12.2" height="24.65" shape-rendering="crispEdges"/><rect fill="#000000" x="1244.4" y="513.9" width="12.2" height="24.65" shape-rendering="crispEdges"/><rect fill="#000000" x="1256.6" y="513.9" width="12.2" height="24.65" shape-rendering="crispEdges"/><rect fill="#000000" x="1268.8" y="513.9" width="12.2" height="24.65" shape-rendering="crispEdges"/><rect fill="#000000" x="1281" y="513.9" width="12.2" height="24.65" shape-rendering="crispEdges"/><rect fill="#000000" x="1293.2" y="513.9" width="12.2" height="24.65" shape-rendering="crispEdges"/><rect fill="#000000" x="1305.4" y="513.9" width="12.2" height="24.65" shape-rendering="crispEdges"/><rect fill="#000000" x="1317.6" y="513.9" width="12.2" height="24.65" shape-rendering="crispEdges"/><rect fill="#000000" x="1329.8" y="513.9" width="12.2" height="24.65" shape-rendering="crispEdges"/><rect fill="#000000" x="1342" y="513.9" width="12.2" height="24.65" shape-rendering="crispEdges"/><rect fill="#000000" x="1354.2" y="513.9" width="12.2" height="24.65" shape-rendering="crispEdges"/><rect fill="#000000" x="1366.4" y="513.9" width="12.2" height="24.65" shape-rendering="crispEdges"/><rect fill="#000000" x="1378.6" y="513.9" width="12.2" height="24.65" shape-rendering="crispEdges"/><rect fill="#000000" x="1390.8" y="513.9" width="12.2" height="24.65" shape-rendering="crispEdges"/><rect fill="#000000" x="1403" y="513.9" width="12.2" height="24.65" shape-rendering="crispEdges"/><rect fill="#000000" x="1415.2" y="513.9" width="12.2" height="24.65" shape-rendering="crispEdges"/><rect fill="#000000" x="1427.4" y="513.9" width="12.2" height="24.65" shape-rendering="crispEdges"/><rect fill="#000000" x="1439.6" y="513.9" width="12.2" height="24.65" shape-rendering="crispEdges"/><rect fill="#000000" x="1451.8" y="513.9" width="12.2" height="24.65" shape-rendering="crispEdges"/><rect fill="#fea62b" x="0" y="538.3" width="12.2" height="24.65" shape-rendering="crispEdges"/><rect fill="#fea62b" x="12.2" y="538.3" width="414.8" height="24.65" shape-rendering="crispEdges"/><rect fill="#fea62b" x="427" y="538.3" width="1024.8" height="24.65" shape-rendering="crispEdges"/><rect fill="#fea62b" x="1451.8" y="538.3" width="12.2" height="24.65" shape-rendering="crispEdges"/><rect fill="#242f38" x="0" y="562.7" width="36.6" height="24.65" shape-rendering="crispEdges"/><rect fill="#242f38" x="36.6" y="562.7" width="61" height="24.65" shape-rendering="crispEdges"/><rect fill="#242f38" x="97.6" y="562.7" width="36.6" height="24.65" shape-rendering="crispEdges"/><rect fill="#242f38" x="134.2" y="562.7" width="97.6" height="24.65" shape-rendering="crispEdges"/><rect fill="#242f38" x="231.8" y="562.7" width="36.6" height="24.65" shape-rendering="crispEdges"/><rect fill="#242f38" x="268.4" y="562.7" width="134.2" height="24.65" shape-rendering="crispEdges"/><rect fill="#242f38" x="402.6" y="562.7" width="36.6" height="24.65" shape-rendering="crispEdges"/><rect fill="#242f38" x="439.2" y="562.7" width="146.4" height="24.65" shape-rendering="crispEdges"/><rect fill="#242f38" x="585.6" y="562.7" width="61" height="24.65" shape-rendering="crispEdges"/><rect fill="#242f38" x="646.6" y="562.7" width="158.6" height="24.65" shape-rendering="crispEdges"/><rect fill="#242f38" x="805.2" y="562.7" width="61" height="24.65" shape-rendering="crispEdges"/><rect fill="#242f38" x="866.2" y="562.7" width="158.6" height="24.65" shape-rendering="crispEdges"/><rect fill="#242f38" x="1024.8" y="562.7" width="292.8" height="24.65" shape-rendering="crispEdges"/><rect fill="#242f38" x="1317.6" y="562.7" width="12.2" height="24.65" shape-rendering="crispEdges"/><rect fill="#242f38" x="1329.8" y="562.7" width="24.4" height="24.65" shape-rendering="crispEdges"/><rect fill="#242f38" x="1354.2" y="562.7" width="97.6" height="24.65" shape-rendering="crispEdges"/><rect fill="#242f38" x="1451.8" y="562.7" width="12.2" height="24.65" shape-rendering="crispEdges"/>
    <g class="terminal-3024615814-matrix">
    <text class="terminal-3024615814-r2" x="12.2" y="20" textLength="12.2" clip-path="url(#terminal-3024615814-line-0)">⭘</text><text class="terminal-3024615814-r2" x="671" y="20" textLength="85.4" clip-path="url(#terminal-3024615814-line-0)">trinops</text><text class="terminal-3024615814-r3" x="1354.2" y="20" textLength="97.6" clip-path="url(#terminal-3024615814-line-0)">04:10:35</text><text class="terminal-3024615814-r1" x="1464" y="20" textLength="12.2" clip-path="url(#terminal-3024615814-line-0)">
</text><text class="terminal-3024615814-r4" x="0" y="44.4" textLength="353.8" clip-path="url(#terminal-3024615814-line-1)">&#160;Query&#160;ID&#160;&#160;&#160;&#160;&#160;&#160;&#160;&#160;&#160;&#160;&#160;&#160;&#160;&#160;&#160;&#160;&#160;&#160;&#160;&#160;</text><text class="terminal-3024615814-r4" x="353.8" y="44.4" textLength="134.2" clip-path="url(#terminal-3024615814-line-1)">&#160;State&#160;&#160;&#160;&#160;&#160;</text><text class="terminal-3024615814-r4" x="488" y="44.4" textLength="158.6" clip-path="url(#terminal-3024615814-line-1)">&#160;User&#160;&#160;&#160;&#160;&#160;&#160;&#160;&#160;</text><text class="terminal-3024615814-r4" x="646.6" y="44.4" textLength="109.8" clip-path="url(#terminal-3024615814-line-1)">&#160;Elapsed&#160;</text><text class="terminal-3024615814-r4" x="756.4" y="44.4" textLength="158.6" clip-path="url(#terminal-3024615814-line-1)">&#160;Rows&#160;&#160;&#160;&#160;&#160;&#160;&#160;&#160;</text><text class="terminal-3024615814-r4" x="915" y="44.4" textLength="109.8" clip-path="url(#terminal-3024615814-line-1)">&#160;Memory&#160;&#160;</text><text class="terminal-3024615814-r4" x="1024.8" y="44.4" textLength="439.2" clip-path="url(#terminal-3024615814-line-1)">&#160;SQL&#160;&#160;&#160;&#160;&#160;&#160;&#160;&#160;&#160;&#160;&#160;&#160;&#160;&#160;&#160;&#160;&#160;&#160;&#160;&#160;&#160;&#160;&#160;&#160;&#160;&#160;&#160;&#160;&#160;&#160;&#160;&#160;</text><text class="terminal-3024615814-r1" x="1464" y="44.4" textLength="12.2" clip-path="url(#terminal-3024615814-line-1)">
</text><text class="terminal-3024615814-r5" x="0" y="68.8" textLength="353.8" clip-path="url(#terminal-3024615814-line-2)">&#160;20260311_091522_00142_abcde&#160;</text><text class="terminal-3024615814-r5" x="353.8" y="68.8" textLength="134.2" clip-path="url(#terminal-3024615814-line-2)">&#160;RUNNING&#160;&#160;&#160;</text><text class="terminal-3024615814-r5" x="488" y="68.8" textLength="158.6" clip-path="url(#terminal-3024615814-line-2)">&#160;analytics&#160;&#160;&#160;</text><text class="terminal-3024615814-r5" x="646.6" y="68.8" textLength="109.8" clip-path="url(#terminal-3024615814-line-2)">&#160;12.9s&#160;&#160;&#160;</text><text class="terminal-3024615814-r5" x="756.4" y="68.8" textLength="158.6" clip-path="url(#terminal-3024615814-line-2)">&#160;48,291,053&#160;&#160;</text><text class="terminal-3024615814-r5" x="915" y="68.8" textLength="109.8" clip-path="url(#terminal-3024615814-line-2)">&#160;256.0MB&#160;</text><text class="terminal-3024615814-r5" x="1024.8" y="68.8" textLength="439.2" clip-path="url(#terminal-3024615814-line-2)">&#160;SELECT&#160;customer_id,&#160;SUM(order_total</text><text class="terminal-3024615814-r1" x="1464" y="68.8" textLength="12.2" clip-path="url(#terminal-3024615814-line-2)">
</text><text class="terminal-3024615814-r2" x="0" y="93.2" textLength="353.8" clip-path="url(#terminal-3024615814-line-3)">&#160;20260311_091801_00287_fghij&#160;</text><text class="terminal-3024615814-r2" x="353.8" y="93.2" textLength="134.2" clip-path="url(#terminal-3024615814-line-3)">&#160;RUNNING&#160;&#160;&#160;</text><text class="terminal-3024615814-r2" x="488" y="93.2" textLength="158.6" clip-path="url(#terminal-3024615814-line-3)">&#160;etl_service&#160;</text><text class="terminal-3024615814-r2" x="646.6" y="93.2" textLength="109.8" clip-path="url(#terminal-3024615814-line-3)">&#160;45.2s&#160;&#160;&#160;</text><text class="terminal-3024615814-r2" x="756.4" y="93.2" textLength="158.6" clip-path="url(#terminal-3024615814-line-3)">&#160;127,849,201&#160;</text><text class="terminal-3024615814-r2" x="915" y="93.2" textLength="109.8" clip-path="url(#terminal-3024615814-line-3)">&#160;512.0MB&#160;</text><text class="terminal-3024615814-r2" x="1024.8" y="93.2" textLength="439.2" clip-path="url(#terminal-3024615814-line-3)">&#160;INSERT&#160;INTO&#160;iceberg.reporting.daily</text><text class="terminal-3024615814-r1" x="1464" y="93.2" textLength="12.2" clip-path="url(#terminal-3024615814-line-3)">
</text><text class="terminal-3024615814-r2" x="0" y="117.6" textLength="353.8" clip-path="url(#terminal-3024615814-line-4)">&#160;20260311_092034_00391_klmno&#160;</text><text class="terminal-3024615814-r2" x="353.8" y="117.6" textLength="134.2" clip-path="url(#terminal-3024615814-line-4)">&#160;PLANNING&#160;&#160;</text><text class="terminal-3024615814-r2" x="488" y="117.6" textLength="158.6" clip-path="url(#terminal-3024615814-line-4)">&#160;backend_svc&#160;</text><text class="terminal-3024615814-r2" x="646.6" y="117.6" textLength="109.8" clip-path="url(#terminal-3024615814-line-4)">&#160;1.2s&#160;&#160;&#160;&#160;</text><text class="terminal-3024615814-r2" x="756.4" y="117.6" textLength="158.6" clip-path="url(#terminal-3024615814-line-4)">&#160;0&#160;&#160;&#160;&#160;&#160;&#160;&#160;&#160;&#160;&#160;&#160;</text><text class="terminal-3024615814-r2" x="915" y="117.6" textLength="109.8" clip-path="url(#terminal-3024615814-line-4)">&#160;0.0B&#160;&#160;&#160;&#160;</text><text class="terminal-3024615814-r2" x="1024.8" y="117.6" textLength="439.2" clip-path="url(#terminal-3024615814-line-4)">&#160;WITH&#160;ranked&#160;AS&#160;(SELECT&#160;*,&#160;ROW_NUMBE</text><text class="terminal-3024615814-r1" x="1464" y="117.6" textLength="12.2" clip-path="url(#terminal-3024615814-line-4)">
</text><text class="terminal-3024615814-r2" x="0" y="142" textLength="353.8" clip-path="url(#terminal-3024615814-line-5)">&#160;20260311_092112_00445_pqrst&#160;</text><text class="terminal-3024615814-r2" x="353.8" y="142" textLength="134.2" clip-path="url(#terminal-3024615814-line-5)">&#160;RUNNING&#160;&#160;&#160;</text><text class="terminal-3024615814-r2" x="488" y="142" textLength="158.6" clip-path="url(#terminal-3024615814-line-5)">&#160;analytics&#160;&#160;&#160;</text><text class="terminal-3024615814-r2" x="646.6" y="142" textLength="109.8" clip-path="url(#terminal-3024615814-line-5)">&#160;3.4s&#160;&#160;&#160;&#160;</text><text class="terminal-3024615814-r2" x="756.4" y="142" textLength="158.6" clip-path="url(#terminal-3024615814-line-5)">&#160;2,841,092&#160;&#160;&#160;</text><text class="terminal-3024615814-r2" x="915" y="142" textLength="109.8" clip-path="url(#terminal-3024615814-line-5)">&#160;128.0MB&#160;</text><text class="terminal-3024615814-r2" x="1024.8" y="142" textLength="439.2" clip-path="url(#terminal-3024615814-line-5)">&#160;SELECT&#160;u.email,&#160;count(o.id)&#160;AS&#160;orde</text><text class="terminal-3024615814-r1" x="1464" y="142" textLength="12.2" clip-path="url(#terminal-3024615814-line-5)">
</text><text class="terminal-3024615814-r2" x="0" y="166.4" textLength="353.8" clip-path="url(#terminal-3024615814-line-6)">&#160;20260311_091105_00098_uvwxy&#160;</text><text class="terminal-3024615814-r2" x="353.8" y="166.4" textLength="134.2" clip-path="url(#terminal-3024615814-line-6)">&#160;FINISHING&#160;</text><text class="terminal-3024615814-r2" x="488" y="166.4" textLength="158.6" clip-path="url(#terminal-3024615814-line-6)">&#160;ml_pipeline&#160;</text><text class="terminal-3024615814-r2" x="646.6" y="166.4" textLength="109.8" clip-path="url(#terminal-3024615814-line-6)">&#160;1.6m&#160;&#160;&#160;&#160;</text><text class="terminal-3024615814-r2" x="756.4" y="166.4" textLength="158.6" clip-path="url(#terminal-3024615814-line-6)">&#160;52,019,384&#160;&#160;</text><text class="terminal-3024615814-r2" x="915" y="166.4" textLength="109.8" clip-path="url(#terminal-3024615814-line-6)">&#160;1.0GB&#160;&#160;&#160;</text><text class="terminal-3024615814-r2" x="1024.8" y="166.4" textLength="439.2" clip-path="url(#terminal-3024615814-line-6)">&#160;CREATE&#160;TABLE&#160;iceberg.staging.user_s</text><text class="terminal-3024615814-r1" x="1464" y="166.4" textLength="12.2" clip-path="url(#terminal-3024615814-line-6)">
</text><text class="terminal-3024615814-r2" x="0" y="190.8" textLength="353.8" clip-path="url(#terminal-3024615814-line-7)">&#160;20260311_092200_00512_zabcd&#160;</text><text class="terminal-3024615814-r2" x="353.8" y="190.8" textLength="134.2" clip-path="url(#terminal-3024615814-line-7)">&#160;QUEUED&#160;&#160;&#160;&#160;</text><text class="terminal-3024615814-r2" x="488" y="190.8" textLength="158.6" clip-path="url(#terminal-3024615814-line-7)">&#160;dba_admin&#160;&#160;&#160;</text><text class="terminal-3024615814-r2" x="646.6" y="190.8" textLength="109.8" clip-path="url(#terminal-3024615814-line-7)">&#160;0.5s&#160;&#160;&#160;&#160;</text><text class="terminal-3024615814-r2" x="756.4" y="190.8" textLength="158.6" clip-path="url(#terminal-3024615814-line-7)">&#160;0&#160;&#160;&#160;&#160;&#160;&#160;&#160;&#160;&#160;&#160;&#160;</text><text class="terminal-3024615814-r2" x="915" y="190.8" textLength="109.8" clip-path="url(#terminal-3024615814-line-7)">&#160;0.0B&#160;&#160;&#160;&#160;</text><text class="terminal-3024615814-r2" x="1024.8" y="190.8" textLength="439.2" clip-path="url(#terminal-3024615814-line-7)">&#160;ANALYZE&#160;iceberg.warehouse.fact_even</text><text class="terminal-3024615814-r1" x="1464" y="190.8" textLength="12.2" clip-path="url(#terminal-3024615814-line-7)">
</text><text class="terminal-3024615814-r2" x="0" y="215.2" textLength="353.8" clip-path="url(#terminal-3024615814-line-8)">&#160;20260311_090830_00051_efghi&#160;</text><text class="terminal-3024615814-r2" x="353.8" y="215.2" textLength="134.2" clip-path="url(#terminal-3024615814-line-8)">&#160;FAILED&#160;&#160;&#160;&#160;</text><text class="terminal-3024615814-r2" x="488" y="215.2" textLength="158.6" clip-path="url(#terminal-3024615814-line-8)">&#160;analytics&#160;&#160;&#160;</text><text class="terminal-3024615814-r2" x="646.6" y="215.2" textLength="109.8" clip-path="url(#terminal-3024615814-line-8)">&#160;2.3s&#160;&#160;&#160;&#160;</text><text class="terminal-3024615814-r2" x="756.4" y="215.2" textLength="158.6" clip-path="url(#terminal-3024615814-line-8)">&#160;0&#160;&#160;&#160;&#160;&#160;&#160;&#160;&#160;&#160;&#160;&#160;</text><text class="terminal-3024615814-r2" x="915" y="215.2" textLength="109.8" clip-path="url(#terminal-3024615814-line-8)">&#160;64.0MB&#160;&#160;</text><text class="terminal-3024615814-r2" x="1024.8" y="215.2" textLength="439.2" clip-path="url(#terminal-3024615814-line-8)">&#160;SELECT&#160;*&#160;FROM&#160;hive.raw.events&#160;WHERE</text><text class="terminal-3024615814-r1" x="1464" y="215.2" textLength="12.2" clip-path="url(#terminal-3024615814-line-8)">
</text><text class="terminal-3024615814-r1" x="1464" y="239.6" textLength="12.2" clip-path="url(#terminal-3024615814-line-9)">
</text><text class="terminal-3024615814-r1" x="1464" y="264" textLength="12.2" clip-path="url(#terminal-3024615814-line-10)">
</text><text class="terminal-3024615814-r1" x="1464" y="288.4" textLength="12.2" clip-path="url(#terminal-3024615814-line-11)">
</text><text class="terminal-3024615814-r1" x="1464" y="312.8" textLength="12.2" clip-path="url(#terminal-3024615814-line-12)">
</text><text class="terminal-3024615814-r1" x="1464" y="337.2" textLength="12.2" clip-path="url(#terminal-3024615814-line-13)">
</text><text class="terminal-3024615814-r1" x="1464" y="361.6" textLength="12.2" clip-path="url(#terminal-3024615814-line-14)">
</text><text class="terminal-3024615814-r1" x="1464" y="386" textLength="12.2" clip-path="url(#terminal-3024615814-line-15)">
</text><text class="terminal-3024615814-r1" x="1464" y="410.4" textLength="12.2" clip-path="url(#terminal-3024615814-line-16)">
</text><text class="terminal-3024615814-r1" x="1464" y="434.8" textLength="12.2" clip-path="url(#terminal-3024615814-line-17)">
</text><text class="terminal-3024615814-r1" x="1464" y="459.2" textLength="12.2" clip-path="url(#terminal-3024615814-line-18)">
</text><text class="terminal-3024615814-r1" x="1464" y="483.6" textLength="12.2" clip-path="url(#terminal-3024615814-line-19)">
</text><text class="terminal-3024615814-r1" x="1464" y="508" textLength="12.2" clip-path="url(#terminal-3024615814-line-20)">
</text><text class="terminal-3024615814-r7" x="878.4" y="532.4" textLength="12.2" clip-path="url(#terminal-3024615814-line-21)">▊</text><text class="terminal-3024615814-r1" x="1464" y="532.4" textLength="12.2" clip-path="url(#terminal-3024615814-line-21)">
</text><text class="terminal-3024615814-r8" x="12.2" y="556.8" textLength="414.8" clip-path="url(#terminal-3024615814-line-22)">analytics&#160;│&#160;7&#160;queries&#160;│&#160;loading...</text><text class="terminal-3024615814-r1" x="1464" y="556.8" textLength="12.2" clip-path="url(#terminal-3024615814-line-22)">
</text><text class="terminal-3024615814-r9" x="0" y="581.2" textLength="36.6" clip-path="url(#terminal-3024615814-line-23)">&#160;q&#160;</text><text class="terminal-3024615814-r2" x="36.6" y="581.2" textLength="61" clip-path="url(#terminal-3024615814-line-23)">Quit&#160;</text><text class="terminal-3024615814-r9" x="97.6" y="581.2" textLength="36.6" clip-path="url(#terminal-3024615814-line-23)">&#160;r&#160;</text><text class="terminal-3024615814-r2" x="134.2" y="581.2" textLength="97.6" clip-path="url(#terminal-3024615814-line-23)">Refresh&#160;</text><text class="terminal-3024615814-r9" x="231.8" y="581.2" textLength="36.6" clip-path="url(#terminal-3024615814-line-23)">&#160;u&#160;</text><text class="terminal-3024615814-r2" x="268.4" y="581.2" textLength="134.2" clip-path="url(#terminal-3024615814-line-23)">My&#160;queries&#160;</text><text class="terminal-3024615814-r9" x="402.6" y="581.2" textLength="36.6" clip-path="url(#terminal-3024615814-line-23)">&#160;a&#160;</text><text class="terminal-3024615814-r2" x="439.2" y="581.2" textLength="146.4" clip-path="url(#terminal-3024615814-line-23)">All&#160;queries&#160;</text><text class="terminal-3024615814-r9" x="585.6" y="581.2" textLength="61" clip-path="url(#terminal-3024615814-line-23)">&#160;esc&#160;</text><text class="terminal-3024615814-r2" x="646.6" y="581.2" textLength="158.6" clip-path="url(#terminal-3024615814-line-23)">Close&#160;detail&#160;</text><text class="terminal-3024615814-r9" x="805.2" y="581.2" textLength="61" clip-path="url(#terminal-3024615814-line-23)">&#160;-/+&#160;</text><text class="terminal-3024615814-r2" x="866.2" y="581.2" textLength="158.6" clip-path="url(#terminal-3024615814-line-23)">Refresh&#160;rate&#160;</text><text class="terminal-3024615814-r10" x="1317.6" y="581.2" textLength="12.2" clip-path="url(#terminal-3024615814-line-23)">▏</text><text class="terminal-3024615814-r9" x="1329.8" y="581.2" textLength="24.4" clip-path="url(#terminal-3024615814-line-23)">^p</text><text class="terminal-3024615814-r2" x="1354.2" y="581.2" textLength="97.6" clip-path="url(#terminal-3024615814-line-23)">&#160;palette</text>
    </g>
    </g>
</svg>
